<?xml version="1.0" encoding="iso-8859-1"?>
<!-- Uploaded to: SVG Repo, www.svgrepo.com, Generator: SVG Repo Mixer Tools -->
<!DOCTYPE svg PUBLIC "-//W3C//DTD SVG 1.1//EN" "http://www.w3.org/Graphics/SVG/1.1/DTD/svg11.dtd">
<svg fill="#000000" height="800px" width="800px" version="1.1" id="Capa_1" xmlns="http://www.w3.org/2000/svg" xmlns:xlink="http://www.w3.org/1999/xlink" 
	 viewBox="0 0 297 297" xml:space="preserve">
<g>
	<path d="M256.702,62.176H240.07c2.111,2.171,5.056,3.527,8.316,3.527S254.591,64.347,256.702,62.176z"/>
	<path d="M269.616,62.176c-3.266,8.549-11.548,14.639-21.23,14.639c-9.682,0-17.965-6.09-21.23-14.639h-47.112
		c23.97,15.379,41.139,40.463,45.934,69.66H297v-69.66H269.616z"/>
	<path d="M124.853,109.249c-21.643,0-39.251,17.608-39.251,39.251s17.608,39.251,39.251,39.251s39.251-17.608,39.251-39.251
		S146.496,109.249,124.853,109.249z M124.853,165.164c-9.189,0-16.663-7.476-16.663-16.664s7.475-16.664,16.663-16.664
		s16.664,7.476,16.664,16.664S134.041,165.164,124.853,165.164z"/>
	<path d="M124.853,62.176c-47.599,0-86.324,38.725-86.324,86.324s38.725,86.324,86.324,86.324s86.324-38.725,86.324-86.324
		S172.452,62.176,124.853,62.176z M124.853,203.914c-30.556,0-55.414-24.859-55.414-55.414s24.859-55.414,55.414-55.414
		s55.414,24.859,55.414,55.414S155.409,203.914,124.853,203.914z"/>
	<path d="M22.741,139.776c0.478-5.644,1.412-11.16,2.771-16.509c-0.089-0.003-0.176-0.013-0.266-0.013
		C11.325,123.254,0,134.579,0,148.5s11.325,25.246,25.246,25.246c0.09,0,0.177-0.011,0.266-0.013
		c-1.359-5.349-2.293-10.865-2.771-16.509c-3.792-1.091-6.577-4.585-6.577-8.724S18.948,140.868,22.741,139.776z"/>
</g>
</svg>