<?xml version="1.0" encoding="utf-8"?>
<!DOCTYPE svg PUBLIC "-//W3C//DTD SVG 1.0//EN" "http://www.w3.org/TR/2001/REC-SVG-20010904/DTD/svg10.dtd">
<svg version="1.0" xmlns="http://www.w3.org/2000/svg" width="250px" height="250px" viewBox="0 0 250 250" preserveAspectRatio="xMidYMid meet">
 <g fill="#2b9451">
  <path d="M 53.50 249.50 c -0.40 -0.25 -1.40 -0.50 -2.20 -0.50 -0.80 0 -2.15 -0.20 -3 -0.50 -0.85 -0.25 -3.10 -0.95 -5.05 -1.50 -3.50 -1.05 -4.45 -1.45 -8.75 -3.45 -8.70 -4.10 -18.10 -12.35 -23.65 -20.65 -5.60 -8.45 -7.95 -14.45 -10.35 -25.90 -0.60 -3.10 -0.45 -141.90 0.20 -145 1.35 -6.55 3.20 -12.25 5.45 -16.80 1.75 -3.60 4.75 -8.75 5.30 -9.20 0.15 -0.15 0.95 -1.15 1.75 -2.25 1.75 -2.40 8.10 -8.65 10.70 -10.60 1 -0.75 1.95 -1.55 2.10 -1.70 0.35 -0.50 3.60 -2.30 8.75 -4.95 5.60 -2.90 8.25 -3.80 16.50 -5.60 3.45 -0.80 143.90 -0.80 147.50 -0.05 2.90 0.60 7.75 1.95 10.25 2.80 2.80 0.95 14.10 6.85 15 7.85 0.15 0.15 1.15 0.90 2.25 1.75 3.70 2.75 10 9.50 12.80 13.75 5.40 8.15 8.15 14.80 10.25 25 0.50 2.30 0.50 143.70 0 146 -2.85 13.75 -8.30 24.35 -17.05 33.25 -9.40 9.55 -19.40 14.90 -33.50 17.90 -3.35 0.70 -144.20 1.05 -145.25 0.35 z  m 20.25 -56 c 0.15 -0.25 3.80 -2.90 8.15 -5.85 l 7.85 -5.40 50.70 -0.25 c 47.60 -0.25 50.75 -0.30 51.25 -1.10 0.40 -0.65 0.40 -1.15 0 -1.75 -0.50 -0.80 -1.60 -0.90 -8.65 -1.05 l -8.05 -0.10 0 -8.25 0 -8.25 8.05 -0.10 c 7.05 -0.15 8.15 -0.25 8.65 -1 0.40 -0.65 0.40 -1.15 0 -1.75 -0.50 -0.80 -1.60 -0.90 -8.65 -1.05 l -8.05 -0.10 0 -7 0 -7 5.40 0 c 9.95 0 12.55 -0.80 11.10 -3.50 -0.50 -0.95 -1.05 -1 -8.55 -1 l -8 0 0.15 -5.25 0.15 -5.25 7.60 -0.15 c 6.50 -0.10 7.75 -0.25 8.50 -1 0.70 -0.65 0.75 -1.05 0.35 -1.75 -0.50 -0.75 -1.70 -0.90 -8.50 -1.10 l -7.95 -0.25 0 -7.25 0 -7.25 7.95 -0.10 c 8.15 -0.10 9 -0.30 8.65 -2.15 -0.25 -1.60 -2.40 -2 -9.60 -1.90 l -7 0.15 0 -7.25 0 -7.25 6.75 -0.05 c 9.35 -0.05 9.40 -0.05 9.75 -1.25 0.70 -2.15 -0.60 -2.60 -8.05 -2.65 -4.10 -0.05 -6.90 -0.25 -7 -0.55 -0.05 -0.25 1.15 -3.30 2.70 -6.75 l 2.90 -6.25 4.10 -0.10 c 2.40 -0.05 4.45 -0.35 4.85 -0.65 1 -0.80 1.10 -14.45 0.15 -15.40 -0.70 -0.70 -90.20 -0.85 -108.75 -0.15 -10.05 0.40 -11.30 0.50 -13.50 1.60 -3.70 1.75 -8.05 6.15 -9.85 9.95 l -1.55 3.25 -0.15 60.25 c -0.05 33.15 0 60.50 0.15 60.85 0.25 0.80 15.50 0.95 16 0.15 z "/>
  <path d="M 74.10 178.15 l 0.15 -9.40 1.30 -0.60 c 0.70 -0.35 3.80 -1.75 6.85 -3.10 l 5.60 -2.50 0 8.15 0 8.15 -3.10 1.90 c -1.65 1.05 -4.50 3 -6.25 4.35 -1.75 1.30 -3.55 2.40 -3.95 2.40 -0.60 0 -0.70 -1.40 -0.60 -9.35 z "/>
  <path d="M 92.15 169.90 l 0.10 -8.15 6.90 -0.15 6.85 -0.15 0 8.30 0 8.25 -6.95 0 -6.95 0 0.05 -8.10 z "/>
  <path d="M 110 169.75 l 0 -8.30 7.65 0.15 7.60 0.15 0 8 0 8 -7.60 0.15 -7.65 0.15 0 -8.30 z "/>
  <path d="M 129.50 169.75 l 0 -8.25 9 0.10 9 0.15 0.15 8.15 0.10 8.10 -9.10 0 -9.15 0 0 -8.25 z "/>
  <path d="M 151.85 177.65 c -0.15 -0.25 -0.30 -3.95 -0.30 -8.25 l -0.10 -7.90 9.80 0 9.75 0 0 8.25 0 8.25 -9.45 0 c -5.25 0 -9.60 -0.15 -9.70 -0.35 z "/>
  <path d="M 74 154.30 l 0 -9.65 3.50 -0.35 c 1.95 -0.15 5.10 -0.45 7 -0.60 l 3.50 -0.35 0 7.50 0 7.45 -2.35 1.05 c -7.40 3.25 -10.75 4.65 -11.15 4.65 -0.30 0 -0.50 -3.90 -0.50 -9.70 z "/>
  <path d="M 92.20 156.85 c -0.10 -0.35 -0.15 -3.55 -0.10 -7.10 l 0.15 -6.50 6.90 -0.15 6.85 -0.15 0 7.30 0 7.25 -6.75 0 c -5.05 0 -6.85 -0.15 -7.05 -0.65 z "/>
  <path d="M 110.10 150.40 l 0.15 -7.15 7.50 0 7.50 0 0 7 0 7 -7.65 0.15 -7.65 0.15 0.15 -7.15 z "/>
  <path d="M 129.40 150.65 c -0.10 -3.80 -0.10 -7.05 0 -7.25 0.10 -0.25 4.25 -0.40 9.25 -0.40 l 9.10 0 0 7.25 0 7.25 -9.10 0 -9.10 0 -0.15 -6.85 z "/>
  <path d="M 151.60 150.25 l 0.10 -7.25 9.65 0 9.65 0 0 7.25 0 7.25 -9.75 0 -9.80 0 0.15 -7.25 z "/>
  <path d="M 74 133.25 c 0 -6.55 0.10 -7.25 0.90 -7.25 0.45 0 3.60 0.35 7 0.80 l 6.10 0.85 0 5.85 0 5.85 -5 0.60 c -2.80 0.30 -5.95 0.55 -7 0.55 l -2 0 0 -7.25 z "/>
  <path d="M 92.05 133.75 c -0.05 -2.90 0.10 -5.25 0.30 -5.25 0.25 -0.05 3.40 -0.10 7.05 -0.15 l 6.60 -0.10 0 5.40 0 5.35 -6.95 0 -6.90 0 -0.10 -5.25 z "/>
  <path d="M 110 133.75 c 0 -2.90 0.15 -5.25 0.40 -5.25 0.20 0 3.55 -0.05 7.45 -0.15 l 7.10 -0.10 0.30 2.50 c 0.20 1.40 0.25 3.75 0.15 5.25 l -0.15 2.75 -7.60 0.15 -7.65 0.15 0 -5.30 z "/>
  <path d="M 129.40 133.95 c -0.10 -2.75 -0.05 -5.15 0.05 -5.25 0.10 -0.10 4.30 -0.20 9.25 -0.20 l 9.05 0 -0.10 5.10 -0.10 5.15 -9 0.15 -9 0.10 -0.15 -5.05 z "/>
  <path d="M 151.95 137.40 c -0.20 -7.55 -0.15 -8.90 0.30 -8.90 0.30 0 4.60 -0.05 9.65 -0.15 l 9.10 -0.10 0 5.40 0 5.35 -9.50 0 -9.50 0 -0.05 -1.60 z "/>
  <path d="M 92.15 123.70 c -0.10 -0.25 -0.10 -3.55 -0.05 -7.25 l 0.15 -6.70 6.75 0 6.75 0 0.15 7.40 0.15 7.45 -6.85 -0.20 c -4.15 -0.10 -6.90 -0.35 -7.05 -0.70 z "/>
  <path d="M 110.20 123.80 c -0.15 -0.35 -0.15 -3.65 -0.10 -7.35 l 0.15 -6.70 6.95 -0.15 c 4 -0.05 7.20 0.10 7.45 0.35 0.60 0.60 1.10 11.40 0.65 13.30 l -0.35 1.30 -7.25 -0.10 c -5 -0.05 -7.35 -0.30 -7.50 -0.65 z "/>
  <path d="M 129.40 117.50 c -0.10 -3.85 -0.05 -7.25 0 -7.50 0.20 -0.50 16.40 -0.75 17.70 -0.25 0.50 0.20 0.60 1.80 0.50 7.50 l -0.15 7.25 -8.95 0 -8.95 0 -0.15 -7 z "/>
  <path d="M 151.85 124.15 c -0.40 -0.80 0 -13.70 0.50 -14.20 0.30 -0.30 4.10 -0.40 9.45 -0.35 l 8.95 0.15 0 7.25 0 7.25 -9.35 0.15 c -5.15 0.05 -9.40 -0.05 -9.55 -0.25 z "/>
  <path d="M 81 122.50 c -3.15 -0.50 -6.05 -0.95 -6.35 -0.95 -0.85 -0.05 -0.95 -19.05 -0.10 -19.05 0.30 0 3.45 1.40 6.95 3.15 l 6.45 3.10 0 7.40 c 0.05 5.60 -0.10 7.35 -0.55 7.30 -0.35 -0.05 -3.25 -0.45 -6.40 -0.95 z "/>
  <path d="M 92.20 105.35 c -0.10 -0.35 -0.15 -3.70 -0.10 -7.40 l 0.15 -6.70 6.90 -0.10 6.85 -0.10 0 7.50 0 7.45 -6.75 0 c -5.10 0 -6.85 -0.15 -7.05 -0.65 z "/>
  <path d="M 110.20 105.35 c -0.10 -0.35 -0.15 -3.70 -0.10 -7.40 l 0.15 -6.70 7.30 -0.15 7.30 -0.15 0.35 1.60 c 0.40 2 0.40 11.60 0 12.65 -0.25 0.70 -1.40 0.80 -7.50 0.80 -5.50 0 -7.30 -0.15 -7.50 -0.65 z "/>
  <path d="M 129.40 98.75 c -0.10 -3.85 -0.10 -7.10 -0.05 -7.15 0.05 -0.10 4.10 -0.25 9.10 -0.35 l 9 -0.20 0.15 7 c 0.10 3.90 -0.05 7.15 -0.30 7.35 -0.25 0.15 -4.35 0.30 -9.10 0.30 l -8.65 0.05 -0.15 -7 z "/>
  <path d="M 151.75 105.50 c -0.05 -0.15 -0.05 -3.40 0 -7.25 l 0.10 -7 9.45 0 9.45 0 0 7.20 0 7.25 -9.40 0 c -5.20 0.05 -9.50 -0.05 -9.60 -0.20 z "/>
  <path d="M 80.40 100.70 l -6.40 -3.20 0 -9.75 c 0 -6.45 0.20 -9.75 0.50 -9.75 0.30 0 3.45 2.70 7 6.05 l 6.50 6.05 0 6.95 c 0 5.25 -0.15 6.95 -0.60 6.90 -0.35 0 -3.50 -1.45 -7 -3.25 z "/>
  <path d="M 90.20 86.40 c -2.35 -1.85 -13.45 -12 -13.60 -12.45 -0.10 -0.25 3.95 -0.45 9.15 -0.45 l 9.30 0 0.85 1.55 c 0.45 0.85 2.45 3.85 4.40 6.65 2 2.75 3.50 5.20 3.35 5.45 -0.10 0.20 -2.85 0.35 -6.10 0.35 -5.35 0 -6.05 -0.10 -7.35 -1.10 z "/>
  <path d="M 107.60 84.90 c -5.20 -7.15 -7.25 -10.45 -6.75 -10.95 0.35 -0.35 4.10 -0.45 10.40 -0.35 l 9.90 0.15 1.60 6.50 c 0.90 3.60 1.50 6.65 1.40 6.90 -0.10 0.20 -3.45 0.35 -7.40 0.35 l -7.20 0 -1.95 -2.60 z "/>
  <path d="M 129.25 87.10 c -0.70 -0.45 -3.85 -12.50 -3.50 -13.15 0.30 -0.45 24.95 -0.40 25.45 0.05 0.40 0.40 -2.80 12.70 -3.40 13.10 -0.30 0.20 -4.50 0.40 -9.30 0.40 -4.80 0 -9 -0.20 -9.25 -0.40 z "/>
  <path d="M 153.10 87.05 c -0.55 -0.30 -0.35 -1.65 0.95 -6.70 1.50 -5.65 1.80 -6.35 2.90 -6.60 2.20 -0.55 20.55 -0.15 20.55 0.45 -0.05 0.30 -1.35 3.35 -2.90 6.80 l -2.90 6.25 -8.95 0.10 c -4.95 0.10 -9.30 -0.05 -9.65 -0.30 z "/>
 </g>
 <g fill="#001900">
  <path d="M 57.75 193.35 c -0.15 -0.35 -0.20 -27.70 -0.15 -60.85 l 0.15 -60.25 1.55 -3.25 c 1.80 -3.80 6.15 -8.20 9.85 -9.95 2.20 -1.10 3.45 -1.20 13.50 -1.60 18.55 -0.70 108.05 -0.55 108.75 0.15 0.95 0.95 0.85 14.60 -0.15 15.40 -0.40 0.30 -2.45 0.60 -4.85 0.65 l -4.10 0.10 -2.90 6.25 c -1.55 3.45 -2.75 6.50 -2.70 6.75 0.10 0.30 2.90 0.50 7 0.55 7.45 0.05 8.75 0.50 8.05 2.65 -0.35 1.20 -0.40 1.20 -9.75 1.25 l -6.75 0.05 0 7.25 0 7.25 7 -0.15 c 7.20 -0.10 9.35 0.30 9.60 1.90 0.35 1.85 -0.50 2.05 -8.65 2.15 l -7.95 0.10 0 7.25 0 7.25 7.95 0.25 c 6.80 0.20 8 0.35 8.50 1.10 0.40 0.70 0.35 1.10 -0.35 1.75 -0.75 0.75 -2 0.90 -8.50 1 l -7.60 0.15 -0.15 5.25 -0.15 5.25 8 0 c 7.50 0 8.05 0.05 8.55 1 1.45 2.70 -1.15 3.50 -11.10 3.50 l -5.40 0 0 7 0 7 8.05 0.10 c 7.05 0.15 8.15 0.25 8.65 1.05 0.40 0.60 0.40 1.10 0 1.75 -0.50 0.75 -1.60 0.85 -8.65 1 l -8.05 0.10 0 8.25 0 8.25 8.05 0.10 c 7.05 0.15 8.15 0.25 8.65 1.05 0.40 0.60 0.40 1.10 0 1.75 -0.50 0.80 -3.65 0.85 -51.25 1.10 l -50.70 0.25 -7.85 5.40 c -4.35 2.95 -8 5.60 -8.15 5.85 -0.50 0.80 -15.75 0.65 -16 -0.15 z  m 20.90 -8.25 c 1.75 -1.35 4.60 -3.30 6.25 -4.35 l 3.10 -1.90 0 -8.15 0 -8.15 -5.60 2.50 c -3.05 1.35 -6.15 2.75 -6.85 3.10 l -1.30 0.60 -0.15 9.40 c -0.10 7.95 0 9.35 0.60 9.35 0.40 0 2.20 -1.10 3.95 -2.40 z  m 27.35 -15.35 l 0 -8.30 -6.85 0.15 -6.90 0.15 -0.10 8.15 -0.05 8.10 6.95 0 6.95 0 0 -8.25 z  m 19.25 0 l 0 -8 -7.60 -0.15 -7.65 -0.15 0 8.30 0 8.30 7.65 -0.15 7.60 -0.15 0 -8 z  m 22.40 0.15 l -0.15 -8.15 -9 -0.15 -9 -0.10 0 8.25 0 8.25 9.15 0 9.10 0 -0.10 -8.10 z  m 23.35 -0.15 l 0 -8.25 -9.75 0 -9.80 0 0.10 7.90 c 0 4.30 0.15 8 0.30 8.25 0.10 0.20 4.45 0.35 9.70 0.35 l 9.45 0 0 -8.25 z  m -91.90 -7.55 c 2.30 -1 5.20 -2.25 6.55 -2.85 l 2.35 -1.05 0 -7.45 0 -7.50 -3.50 0.35 c -1.90 0.15 -5.05 0.45 -7 0.60 l -3.50 0.35 0 9.65 c 0 5.80 0.20 9.70 0.50 9.70 0.25 0 2.30 -0.80 4.60 -1.80 z  m 26.90 -11.95 l 0 -7.30 -6.85 0.15 -6.90 0.15 -0.15 6.50 c -0.05 3.55 0 6.75 0.10 7.10 0.20 0.50 2 0.65 7.05 0.65 l 6.75 0 0 -7.25 z  m 19.25 0 l 0 -7 -7.50 0 -7.50 0 -0.15 7.15 -0.15 7.15 7.65 -0.15 7.65 -0.15 0 -7 z  m 22.50 0 l 0 -7.25 -9.10 0 c -5 0 -9.15 0.15 -9.25 0.40 -0.10 0.20 -0.10 3.45 0 7.25 l 0.15 6.85 9.10 0 9.10 0 0 -7.25 z  m 23.25 0 l 0 -7.25 -9.65 0 -9.65 0 -0.10 7.25 -0.15 7.25 9.80 0 9.75 0 0 -7.25 z  m -88 -10.30 l 5 -0.60 0 -5.85 0 -5.85 -6.10 -0.85 c -3.40 -0.45 -6.55 -0.80 -7 -0.80 -0.80 0 -0.90 0.70 -0.90 7.25 l 0 7.25 2 0 c 1.05 0 4.20 -0.25 7 -0.55 z  m 23 -6.30 l 0 -5.40 -6.60 0.10 c -3.65 0.05 -6.80 0.10 -7.05 0.15 -0.20 0 -0.35 2.35 -0.30 5.25 l 0.10 5.25 6.90 0 6.95 0 0 -5.35 z  m 19.40 2.35 c 0.10 -1.50 0.05 -3.85 -0.15 -5.25 l -0.30 -2.50 -7.10 0.10 c -3.90 0.10 -7.25 0.15 -7.45 0.15 -0.25 0 -0.40 2.35 -0.40 5.25 l 0 5.30 7.65 -0.15 7.60 -0.15 0.15 -2.75 z  m 22.25 -2.40 l 0.10 -5.10 -9.05 0 c -4.95 0 -9.15 0.10 -9.25 0.20 -0.10 0.10 -0.15 2.50 -0.05 5.25 l 0.15 5.05 9 -0.10 9 -0.15 0.10 -5.15 z  m 23.35 0.05 l 0 -5.40 -9.10 0.10 c -5.05 0.10 -9.35 0.15 -9.65 0.15 -0.45 0 -0.50 1.35 -0.30 8.90 l 0.05 1.60 9.50 0 9.50 0 0 -5.35 z  m -65.10 -16.50 l -0.15 -7.40 -6.75 0 -6.75 0 -0.15 6.70 c -0.05 3.70 -0.05 7 0.05 7.25 0.15 0.35 2.90 0.60 7.05 0.70 l 6.85 0.20 -0.15 -7.45 z  m 19.40 6.10 c 0.45 -1.90 -0.05 -12.70 -0.65 -13.30 -0.25 -0.25 -3.45 -0.40 -7.45 -0.35 l -6.95 0.15 -0.15 6.70 c -0.05 3.70 -0.05 7 0.10 7.35 0.15 0.35 2.50 0.60 7.50 0.65 l 7.25 0.10 0.35 -1.30 z  m 22.30 -6 c 0.10 -5.70 0 -7.30 -0.50 -7.50 -1.30 -0.50 -17.50 -0.25 -17.70 0.25 -0.05 0.25 -0.10 3.65 0 7.50 l 0.15 7 8.95 0 8.95 0 0.15 -7.25 z  m 23.15 -0.25 l 0 -7.25 -8.95 -0.15 c -5.35 -0.05 -9.15 0.05 -9.45 0.35 -0.50 0.50 -0.90 13.40 -0.50 14.20 0.15 0.20 4.40 0.30 9.55 0.25 l 9.35 -0.15 0 -7.25 z  m -82.80 -0.85 l 0 -7.40 -6.45 -3.10 c -3.50 -1.75 -6.65 -3.15 -6.95 -3.15 -0.85 0 -0.75 19 0.10 19.05 0.30 0 3.20 0.45 6.35 0.95 3.15 0.50 6.05 0.90 6.40 0.95 0.45 0.05 0.60 -1.70 0.55 -7.30 z  m 18.05 -17.60 l 0 -7.50 -6.85 0.10 -6.90 0.10 -0.15 6.70 c -0.05 3.70 0 7.05 0.10 7.40 0.20 0.50 1.95 0.65 7.05 0.65 l 6.75 0 0 -7.45 z  m 19.20 6.65 c 0.40 -1.05 0.40 -10.65 0 -12.65 l -0.35 -1.60 -7.30 0.15 -7.30 0.15 -0.15 6.70 c -0.05 3.70 0 7.05 0.10 7.40 0.20 0.50 2 0.65 7.50 0.65 6.10 0 7.25 -0.10 7.50 -0.80 z  m 22.10 0.20 c 0.25 -0.20 0.40 -3.45 0.30 -7.35 l -0.15 -7 -9 0.20 c -5 0.10 -9.05 0.25 -9.10 0.35 -0.05 0.05 -0.05 3.30 0.05 7.15 l 0.15 7 8.65 -0.05 c 4.75 0 8.85 -0.15 9.10 -0.30 z  m 23.45 -6.95 l 0 -7.20 -9.45 0 -9.45 0 -0.10 7 c -0.05 3.85 -0.05 7.10 0 7.25 0.10 0.15 4.40 0.25 9.60 0.20 l 9.40 0 0 -7.25 z  m -82.75 -1.40 l 0 -6.95 -6.50 -6.05 c -3.55 -3.35 -6.70 -6.05 -7 -6.05 -0.30 0 -0.50 3.30 -0.50 9.75 l 0 9.75 6.40 3.20 c 3.50 1.80 6.65 3.25 7 3.25 0.45 0.05 0.60 -1.65 0.60 -6.90 z  m 15.65 -9.90 c 0.15 -0.25 -1.35 -2.70 -3.35 -5.45 -1.95 -2.80 -3.95 -5.80 -4.40 -6.65 l -0.85 -1.55 -9.30 0 c -5.20 0 -9.25 0.20 -9.15 0.45 0.15 0.45 11.25 10.60 13.60 12.45 1.30 1 2 1.10 7.35 1.10 3.25 0 6 -0.15 6.10 -0.35 z  m 20.50 0 c 0.10 -0.25 -0.50 -3.30 -1.40 -6.90 l -1.60 -6.50 -9.90 -0.15 c -6.30 -0.10 -10.05 0 -10.40 0.35 -0.50 0.50 1.55 3.80 6.75 10.95 l 1.95 2.60 7.20 0 c 3.95 0 7.30 -0.15 7.40 -0.35 z  m 23.65 -0.05 c 0.60 -0.40 3.80 -12.70 3.40 -13.10 -0.50 -0.45 -25.15 -0.50 -25.45 -0.05 -0.35 0.65 2.80 12.70 3.50 13.15 0.25 0.20 4.45 0.40 9.25 0.40 4.80 0 9 -0.20 9.30 -0.40 z  m 26.80 -6.10 c 1.55 -3.45 2.85 -6.50 2.90 -6.80 0 -0.60 -18.35 -1 -20.55 -0.45 -1.10 0.25 -1.40 0.95 -2.90 6.60 -1.30 5.05 -1.50 6.40 -0.95 6.70 0.35 0.25 4.70 0.40 9.65 0.30 l 8.95 -0.10 2.90 -6.25 z "/>
 </g>
</svg>